<?xml version="1.0" encoding="UTF-8" standalone="no"?>
<svg
   version="1.1"
   width="239.9998pt"
   height="239.9998pt"
   id="svg4"
   viewBox="0 0 239.9998 239.9998"
   sodipodi:docname="Logo BBG - Primer, Vertikal Abbreviation, Text Black.svg"
   xml:space="preserve"
   inkscape:export-filename="Logo BBG edit white text.cdr.svg"
   inkscape:export-xdpi="96"
   inkscape:export-ydpi="96"
   xmlns:inkscape="http://www.inkscape.org/namespaces/inkscape"
   xmlns:sodipodi="http://sodipodi.sourceforge.net/DTD/sodipodi-0.dtd"
   xmlns="http://www.w3.org/2000/svg"
   xmlns:svg="http://www.w3.org/2000/svg"><defs
     id="defs4" /><sodipodi:namedview
     id="namedview4"
     pagecolor="#ffffff"
     bordercolor="#666666"
     borderopacity="1.0"
     inkscape:showpageshadow="2"
     inkscape:pageopacity="0.0"
     inkscape:pagecheckerboard="0"
     inkscape:deskcolor="#d1d1d1"
     inkscape:zoom="1.1581841"
     inkscape:cx="67.778519"
     inkscape:cy="180.88662"
     inkscape:window-width="1366"
     inkscape:window-height="736"
     inkscape:window-x="0"
     inkscape:window-y="32"
     inkscape:window-maximized="1"
     inkscape:current-layer="svg4"
     inkscape:document-units="pt" /><g
     id="Layer1009"
     transform="matrix(0.91244087,0,0,0.91700356,10.039556,-8.246336)"><path
       d="m 117.4551,216.759 c -5.0616,0 -9.2026,-4.1406 -9.2026,-9.2018 v -2.0731 C 85.0471,182.9128 46.2517,173.6268 20.685,181.838 l -1.0739,-2.8364 c 1.756,-0.7076 3.1574,-1.2437 5.0058,-1.7107 -0.8449,-2.2105 -1.1344,-3.026 -1.9992,-5.2275 21.7121,-11.7863 70.7032,-7.7459 97.8946,21.4689 27.1913,-29.2148 76.1825,-33.2552 97.8945,-21.4689 -0.8648,2.2015 -1.1542,3.017 -1.9992,5.2275 1.8485,0.467 3.2498,1.0031 5.0059,1.7107 l -1.074,2.8364 c -25.5666,-8.2112 -64.362,1.0748 -87.5675,23.6461 v 2.0731 c 0,5.0612 -4.141,9.2018 -9.2026,9.2018 z"
       style="fill:#ff8200;fill-rule:evenodd"
       id="path1" /><path
       d="m 118.148,18.2791 c 0.7318,49.742 -50.1113,65.5951 -65.763,83.3013 -10.9344,12.3691 -23.7735,34.3802 12.4356,57.7882 C 37.8387,99.6145 127.6578,125.4434 118.148,18.2791 Z"
       style="fill:#2f2a95;fill-rule:evenodd"
       id="path2" /><path
       d="m 122.877,18.2791 c -0.7318,49.742 50.1112,65.5951 65.763,83.3013 10.9344,12.3691 23.7735,34.3802 -12.4356,57.7882 C 203.1862,99.6145 113.3672,125.4434 122.877,18.2791 Z"
       style="fill:#2f2a95;fill-rule:evenodd"
       id="path3" /><path
       d="m 75.0686,159.3669 c 7.3593,-23.5891 23.8997,-43.1261 45.4402,-54.4299 21.541,11.3038 38.0818,30.8413 45.4406,54.4316 -15.4154,3.462 -30.0502,10.3569 -42.6806,20.3998 v -21.8616 c 1.6795,-0.9599 2.8118,-2.7682 2.8118,-4.8408 0,-3.0771 -2.4947,-5.5718 -5.5718,-5.5718 -3.077,0 -5.5717,2.4947 -5.5717,5.5718 0,2.0726 1.1322,3.8809 2.8118,4.8408 v 21.8555 C 105.1184,169.7208 90.484,162.828 75.0686,159.3669 Z"
       style="fill:#ff8200;fill-rule:evenodd"
       id="path4" /></g><path
     style="font-weight:bold;font-size:37.4319px;line-height:1.25;font-family:'Product Sans';-inkscape-font-specification:'Product Sans Bold';stroke-width:0.779832"
     d="m 80.977184,228.52544 q -2.358209,0 -4.304668,-0.74864 -1.909027,-0.78607 -3.256575,-2.24591 -1.347549,-1.45985 -2.096187,-3.5186 -0.748638,-2.09619 -0.748638,-4.75385 v -16.13315 h 5.053307 v 16.4326 q 0,1.34755 0.336887,2.47051 0.336887,1.12296 1.010661,1.94646 0.673774,0.8235 1.684436,1.31011 1.010661,0.44919 2.320777,0.44919 1.347549,0 2.35821,-0.44919 1.010661,-0.48661 1.684436,-1.31011 0.673774,-0.8235 1.010661,-1.94646 0.336887,-1.12296 0.336887,-2.47051 v -16.4326 h 5.053307 v 16.13315 q 0,2.50793 -0.748638,4.60412 -0.711207,2.05876 -2.096187,3.55603 -1.347548,1.45985 -3.294007,2.28335 -1.909027,0.8235 -4.304669,0.8235 z M 96.21192,201.12529 h 10.48093 q 1.72187,0 3.21915,0.56148 1.49727,0.52404 2.5828,1.49727 1.12295,0.9358 1.7593,2.20849 0.63634,1.27268 0.63634,2.73252 0,2.13362 -1.0481,3.59347 -1.01066,1.42241 -2.54536,2.17105 v 0.29945 q 2.05875,0.74864 3.294,2.35821 1.27269,1.57214 1.27269,3.93035 0,1.72187 -0.71121,3.10685 -0.67377,1.34755 -1.87159,2.32078 -1.19782,0.97323 -2.8074,1.49727 -1.57214,0.52405 -3.4063,0.52405 H 96.21192 Z m 10.10661,10.93011 q 1.7593,0 2.6951,-0.93579 0.97323,-0.97323 0.97323,-2.28335 0,-1.31012 -0.9358,-2.24591 -0.9358,-0.9358 -2.5828,-0.9358 h -5.20303 v 6.40085 z m 0.56148,11.22957 q 1.90903,0 2.91969,-0.93579 1.01066,-0.97323 1.01066,-2.47051 0,-1.49728 -1.04809,-2.4705 -1.01066,-1.01067 -3.03199,-1.01067 h -5.46505 v 6.88747 z m 12.87656,-22.15968 h 10.48094 q 1.72186,0 3.21914,0.56148 1.49728,0.52404 2.5828,1.49727 1.12296,0.9358 1.7593,2.20849 0.63634,1.27268 0.63634,2.73252 0,2.13362 -1.04809,3.59347 -1.01066,1.42241 -2.54537,2.17105 v 0.29945 q 2.05875,0.74864 3.29401,2.35821 1.27268,1.57214 1.27268,3.93035 0,1.72187 -0.7112,3.10685 -0.67378,1.34755 -1.8716,2.32078 -1.19782,0.97323 -2.80739,1.49727 -1.57214,0.52405 -3.4063,0.52405 h -10.85526 z m 10.10662,10.93011 q 1.7593,0 2.69509,-0.93579 0.97323,-0.97323 0.97323,-2.28335 0,-1.31012 -0.93579,-2.24591 -0.9358,-0.9358 -2.5828,-0.9358 h -5.20304 v 6.40085 z m 0.56148,11.22957 q 1.90902,0 2.91968,-0.93579 1.01067,-0.97323 1.01067,-2.47051 0,-1.49728 -1.0481,-2.4705 -1.01066,-1.01067 -3.03198,-1.01067 h -5.46506 v 6.88747 z m 25.60341,-10.06918 h 13.13859 q 0.1123,0.44919 0.18716,1.08553 0.0749,0.63634 0.0749,1.27268 0,2.5828 -0.78607,4.86615 -0.78607,2.28334 -2.47051,4.08008 -1.79673,1.90902 -4.30467,2.95712 -2.50794,1.04809 -5.72708,1.04809 -2.91969,0 -5.50249,-1.04809 -2.5828,-1.0481 -4.49183,-2.91969 -1.90902,-1.8716 -3.03198,-4.41697 -1.12296,-2.5828 -1.12296,-5.61478 0,-3.03199 1.12296,-5.57735 1.12296,-2.58281 3.03198,-4.4544 1.90903,-1.8716 4.49183,-2.91969 2.5828,-1.04809 5.50249,-1.04809 3.25658,0 5.80195,1.12296 2.5828,1.12295 4.41696,3.10684 l -3.48117,3.40631 q -1.31011,-1.38498 -2.91969,-2.09619 -1.60957,-0.74864 -3.85548,-0.74864 -1.83416,0 -3.48117,0.67378 -1.647,0.63634 -2.88225,1.83416 -1.23526,1.19782 -1.98389,2.91969 -0.71121,1.68443 -0.71121,3.78062 0,2.09619 0.71121,3.81805 0.74863,1.68444 1.98389,2.88226 1.27268,1.19782 2.91968,1.87159 1.64701,0.63635 3.5186,0.63635 2.13362,0 3.59347,-0.59891 1.49727,-0.63635 2.54536,-1.60958 0.74864,-0.67377 1.27269,-1.68443 0.56148,-1.04809 0.86093,-2.32078 h -8.42217 z"
     id="text4"
     aria-label="UBBG" /></svg>
